<svg id="tide" enable-background="new 0 0 300 300" height="512" viewBox="0 0 300 300" width="512" xmlns="http://www.w3.org/2000/svg"><g><circle cx="130" cy="114.16" fill="#e5efef" r="86"/><path d="m231.137 217.525c-.205 0-.41-.016-.617-.047-2.184-.338-3.68-2.381-3.342-4.564.545-3.529.822-7.148.822-10.754 0-27.014-15.859-51.885-40.402-63.361-4.615-2.156-7.598-6.871-7.598-12.012v-34.627h-44v34.627c0 5.141-2.982 9.855-7.598 12.012-18.414 8.609-32.164 24.697-37.723 44.135-.609 2.121-2.82 3.355-4.945 2.746-2.125-.607-3.354-2.822-2.746-4.945 6.195-21.666 21.514-39.592 42.027-49.182 1.812-.848 2.984-2.719 2.984-4.766v-38.627c0-2.209 1.791-4 4-4h52c2.209 0 4 1.791 4 4v38.627c0 2.047 1.172 3.918 2.984 4.766 27.347 12.785 45.017 40.5 45.017 70.607 0 4.014-.309 8.043-.916 11.977-.305 1.976-2.008 3.388-3.947 3.388z" fill="#4c241d"/><g><circle cx="148" cy="192.16" fill="#fc8c29" r="20"/><path d="m148 216.16c-13.234 0-24-10.766-24-24s10.766-24 24-24 24 10.766 24 24-10.766 24-24 24zm0-40c-8.822 0-16 7.178-16 16s7.178 16 16 16 16-7.178 16-16-7.178-16-16-16z" fill="#4c241d"/></g><path d="m190 92.16h-64c-5.514 0-10-4.486-10-10s4.486-10 10-10h64c5.514 0 10 4.486 10 10s-4.486 10-10 10zm-64-12c-1.104 0-2 .896-2 2s.896 2 2 2h64c1.104 0 2-.896 2-2s-.896-2-2-2z" fill="#4c241d"/><g><path d="m191.007 209.253c3.07-3.515 4.993-8.06 4.993-13.093 0-11.046-8.954-20-20-20-10.682 0-19.33 8.397-19.893 18.938-21.454-8.747-44.536-14.542-69.244-13.257-1.846 6.457-2.863 13.265-2.863 20.319 0 28.861 16.559 53.799 40.661 66h66.678c21.981-11.127 37.644-32.863 40.238-58.493-11.987 1.774-26.772 2.556-40.57-.414z" fill="#fc8c29"/><path d="m191.34 272.16h-66.68c-.627 0-1.246-.148-1.807-.432-26.433-13.381-42.853-40.039-42.853-69.568 0-7.207 1.016-14.414 3.018-21.418.469-1.643 1.932-2.807 3.639-2.895 21.104-1.115 42.881 2.736 66.34 11.719 2.869-10.096 12.123-17.406 23.004-17.406 13.234 0 24 10.766 24 24 0 3.533-.811 7.014-2.336 10.199 12.232 1.68 24.596.641 33.328-.648 1.217-.184 2.457.211 3.35 1.064.891.852 1.34 2.068 1.217 3.295-2.688 26.525-18.541 49.574-42.412 61.658-.562.284-1.181.432-1.808.432zm-65.711-8h64.742c19.441-10.164 32.803-28.502 36.531-49.85-10.371 1.176-23.859 1.623-36.736-1.146-1.385-.297-2.508-1.305-2.955-2.65-.445-1.344-.148-2.822.783-3.891 1.828-2.094 4.006-5.607 4.006-10.463 0-8.822-7.178-16-16-16-8.461 0-15.445 6.654-15.898 15.15-.068 1.293-.76 2.473-1.852 3.166-1.094.689-2.455.812-3.652.324-23.027-9.387-44.23-13.672-64.621-13.082-1.313 5.409-1.977 10.926-1.977 16.442 0 26.184 14.393 49.853 37.629 62z" fill="#4c241d"/></g><path d="m252 272.16h-76c-2.209 0-4-1.791-4-4s1.791-4 4-4h76c2.209 0 4 1.791 4 4s-1.791 4-4 4z" fill="#4c241d"/><g><circle cx="108" cy="180.16" fill="#fc8c29" r="8"/><path d="m108 192.16c-6.617 0-12-5.383-12-12s5.383-12 12-12 12 5.383 12 12-5.383 12-12 12zm0-16c-2.205 0-4 1.795-4 4s1.795 4 4 4 4-1.795 4-4-1.795-4-4-4z" fill="#4c241d"/></g><g><circle cx="164" cy="156.16" fill="#fc8c29" r="8"/><path d="m164 168.16c-6.617 0-12-5.383-12-12s5.383-12 12-12 12 5.383 12 12-5.383 12-12 12zm0-16c-2.205 0-4 1.795-4 4s1.795 4 4 4 4-1.795 4-4-1.795-4-4-4z" fill="#4c241d"/></g><circle cx="144" cy="56.16" fill="#fc8c29" r="8"/><circle cx="176" cy="40.16" fill="#fc8c29" r="8"/><circle cx="174" cy="198.16" fill="#4c241d" r="6"/><circle cx="113.596" cy="216.117" fill="#4c241d" r="4.276"/><circle cx="153.596" cy="32.117" fill="#fc8c29" r="4.276"/><g fill="#4c241d"><circle cx="125.596" cy="248.117" r="4.276"/><circle cx="141.596" cy="224.117" r="4.276"/><path d="m84 100.16c-2.209 0-4-1.791-4-4v-8c0-2.209 1.791-4 4-4s4 1.791 4 4v8c0 2.209-1.791 4-4 4z"/><path d="m84 124.16c-2.209 0-4-1.791-4-4v-8c0-2.209 1.791-4 4-4s4 1.791 4 4v8c0 2.209-1.791 4-4 4z"/><path d="m76 108.16h-8c-2.209 0-4-1.791-4-4s1.791-4 4-4h8c2.209 0 4 1.791 4 4s-1.791 4-4 4z"/><path d="m100 108.16h-8c-2.209 0-4-1.791-4-4s1.791-4 4-4h8c2.209 0 4 1.791 4 4s-1.791 4-4 4z"/></g></g></svg>