<svg id="Layer_1" enable-background="new 0 0 513.53 513.53" height="512" viewBox="0 0 513.53 513.53" width="512" xmlns="http://www.w3.org/2000/svg"><path d="m133.536 23.897c-3.536 2.176-6.723 4.94-9.393 8.229l-93.963 115.735c-1.606 1.978-2.996 4.107-4.157 6.35l207.839 120.189z" fill="#ff8659"/><path d="m26.023 154.211c-1.954 3.774-3.257 7.87-3.833 12.118l-21.093 155.647c-.539 3.982-.411 7.966.307 11.818l300.443-169.489z" fill="#ff7038"/><path d="m405.331.096-149.23 10.747-105.726 7.614c-6.031.434-11.792 2.334-16.838 5.44l19.361 134.238 126.266 9.186 83.648-44.224 54.924-121.803c-3.978-1.077-8.165-1.503-12.405-1.198z" fill="#ff7038"/><path d="m506.769 121.079-67.527-104.107c-5.071-7.818-12.787-13.315-21.507-15.677l-161.634 95.722-103.204 61.118 41.332 63.402 6.098 20.279 12.08 3.085v10.141l43.694 72.219 255.505-195.043c-.994-3.932-2.607-7.701-4.837-11.139z" fill="#c8661c"/><path d="m289.11 241.816-33.009-20.278v-.001l-103.204-63.402-151.493 175.659c1.428 7.66 5.231 14.788 11.044 20.271l158.348 149.32c3.937 3.713 8.599 6.484 13.638 8.185l71.667-184.309 33.183-85.338z" fill="#ffb454"/><path d="m289.284 241.923-33.183 85.338-71.667 184.309c3.804 1.284 7.821 1.96 11.907 1.96h174.376c5.782 0 11.419-1.346 16.498-3.856z" fill="#ff7038"/><path d="m510.567 377.867c1.437-4.001 2.198-8.251 2.198-12.578v-223.949c0-3.093-.408-6.152-1.158-9.121l-254.364 106.27z" fill="#804012"/><path d="m387.216 509.674c3.921-1.938 7.509-4.57 10.574-7.815l104.815-111.007c3.555-3.765 6.245-8.196 7.963-12.984l-249.264-183.805z" fill="#c8661c"/><path d="m417.736 1.294c-3.978-1.078-8.165-1.503-12.405-1.198l-149.23 10.747v86.174z" fill="#c8661c"/><g fill="#b95e1a"><path d="m439.242 16.972c-5.071-7.818-12.787-13.315-21.507-15.677l-161.634 95.722v127.569l30.243 20.316 2.765-3.085.174.107 222.322-109.705c-.995-3.932-2.607-7.702-4.837-11.14z"/><path d="m256.101 97.017 161.635-95.723z"/><path d="m289.284 241.923-.174-.107z"/></g><path d="m256.101 327.262 33.183-85.339-33.183-20.385z" fill="#ff7038"/><path d="m256.101 327.262 33.183-85.339z" fill="#b95e1a"/><path d="m256.101 327.262v186.268h114.616c5.782 0 11.419-1.346 16.498-3.856l-97.931-267.75z" fill="#b95e1a"/></svg>